<?xml version="1.0" encoding="UTF-8"?>
<svg version="1.1" xmlns="http://www.w3.org/2000/svg" width="512" height="512">
<path d="M0 0 C10.6353053 8.03632394 18.09452258 18.17108439 20.52734375 31.4453125 C22.22552694 45.91476382 19.02756655 57.89093314 10.8125 69.875 C10.235 70.761875 9.6575 71.64875 9.0625 72.5625 C4.02319185 77.74178893 -2.51478723 82.10826544 -9.1875 84.875 C-10.1775 84.875 -11.1675 84.875 -12.1875 84.875 C-12.8475 87.845 -13.5075 90.815 -14.1875 93.875 C-13.29313232 94.07601318 -12.39876465 94.27702637 -11.47729492 94.48413086 C1.65993798 97.48449043 14.67440948 100.93957673 27.69116211 104.4206543 C30.2492831 105.10359603 32.80789481 105.78401674 35.36791992 106.4597168 C39.1051032 107.44716171 42.83989759 108.44319908 46.57421875 109.44140625 C47.71485275 109.74148087 48.85548676 110.04155548 50.03068542 110.35072327 C62.3678025 113.67477225 62.3678025 113.67477225 66.6875 117.5625 C69.44837126 123.23762427 67.62818232 129.00861371 65.71342891 134.63872343 C60.55020964 150.1545444 60.98769325 165.81384148 61.10485852 181.94519484 C61.12905314 186.21420737 61.11782929 190.48315713 61.11102295 194.75221252 C61.10375527 202.12385997 61.1175717 209.4952144 61.14575005 216.86680794 C61.18603863 227.52989621 61.18800682 238.19274038 61.18009759 248.85588961 C61.16781392 266.16934864 61.17842725 283.48270542 61.20727539 300.79614258 C61.20898934 301.82910516 61.21070328 302.86206775 61.21246917 303.92633223 C61.21947274 308.11286068 61.22659026 312.29938891 61.23383903 316.48591695 C61.25385252 328.04733028 61.27164205 339.60874603 61.28735352 351.17016602 C61.28876988 352.20700754 61.29018624 353.24384905 61.29164552 354.31211001 C61.31459334 371.58734147 61.31790596 388.86252775 61.30795342 406.13777059 C61.30284348 416.78017197 61.31604148 427.42225825 61.35286594 438.06459879 C61.37700089 445.3418309 61.38377322 452.61894199 61.37675791 459.89621038 C61.3733688 464.0955278 61.37836217 468.29441763 61.40515327 472.49365997 C61.42954773 476.33536058 61.43110145 480.17636049 61.4143386 484.01809566 C61.41238183 485.40918863 61.41894903 486.80032448 61.43479805 488.19132853 C61.54521321 498.45217366 61.54521321 498.45217366 59.10304356 503.19452477 C53.74897179 505.9288405 48.49011961 505.55790873 42.56494141 505.50318909 C41.18649688 505.50823446 39.8080589 505.51546322 38.429636 505.52468723 C34.64223996 505.54363844 30.85548847 505.53136015 27.06810856 505.5139643 C22.98350152 505.5006084 18.89898992 505.51602097 14.81439209 505.52778625 C6.81288108 505.54618056 -1.18838598 505.53763865 -9.18988943 505.51969803 C-15.69193846 505.50568135 -22.1939212 505.50177722 -28.69598389 505.5051403 C-30.08325827 505.50585647 -30.08325827 505.50585647 -31.4985584 505.5065871 C-33.37728009 505.50761341 -35.25600177 505.50866877 -37.13472342 505.50975286 C-53.75327593 505.51832355 -70.37171055 505.50163299 -86.99023438 505.47192383 C-103.12179517 505.44308554 -119.25318612 505.4360024 -135.38476562 505.45141602 C-152.94433733 505.46817105 -170.50382837 505.47221951 -188.06340218 505.45470566 C-189.93527348 505.45286124 -191.80714479 505.45102651 -193.67901611 505.44920158 C-195.06056761 505.44783345 -195.06056761 505.44783345 -196.47002923 505.44643768 C-202.96544591 505.44082793 -209.46082325 505.44414353 -215.95623779 505.45074654 C-223.87031533 505.45847218 -231.78422558 505.45175496 -239.69826937 505.4265715 C-243.73738858 505.4140585 -247.7762471 505.40795158 -251.81537628 505.41911316 C-255.51154442 505.42913428 -259.20719206 505.42074208 -262.90329671 505.39753198 C-264.87671918 505.38990795 -266.8501872 505.40194668 -268.8235836 505.41463572 C-269.99390947 505.40358803 -271.16423534 505.39254034 -272.37002563 505.38115788 C-273.38002939 505.37996639 -274.39003315 505.37877491 -275.43064308 505.37754732 C-278.94048891 504.73773769 -280.62956761 503.31015729 -283.1875 500.875 C-284.90044899 497.44910201 -284.36869745 493.51541786 -284.39282227 489.74365234 C-284.40272186 488.79726395 -284.41262146 487.85087555 -284.42282104 486.87580872 C-284.45449022 483.73754404 -284.47921488 480.59926421 -284.50390625 477.4609375 C-284.5244711 475.28902791 -284.54546744 473.11712236 -284.56687927 470.94522095 C-284.62214839 465.22089915 -284.67153631 459.49654095 -284.71972656 453.77215576 C-284.76990628 447.93400827 -284.82561074 442.09591383 -284.88085938 436.2578125 C-284.98850014 424.79692029 -285.08993194 413.33598207 -285.1875 401.875 C-285.97597321 401.67312576 -286.76444641 401.47125153 -287.57681274 401.26325989 C-295.02556175 399.35308443 -302.4700553 397.42742915 -309.91031837 395.48448658 C-313.73511431 394.48626197 -317.5612463 393.49398588 -321.39111328 392.51538086 C-325.09070279 391.56982866 -328.78588192 390.6085534 -332.4785881 389.63648033 C-333.8844518 389.2693163 -335.29178608 388.90773394 -336.7005806 388.55198097 C-350.4558406 385.07123209 -350.4558406 385.07123209 -355.1875 379.875 C-357.83021373 374.58957254 -355.77481307 368.33256541 -354.28930664 362.92724609 C-354.08506388 362.15668884 -353.88082111 361.38613159 -353.67038918 360.59222412 C-352.98775064 358.02533991 -352.2927314 355.46197952 -351.59765625 352.8984375 C-351.10535853 351.05762326 -350.61382601 349.21660422 -350.1230011 347.37539673 C-348.78841235 342.37785585 -347.44301777 337.38328083 -346.0956955 332.38916016 C-344.66964423 327.09576162 -343.25363186 321.79967833 -341.83642578 316.50390625 C-339.17371746 306.56030118 -336.50204853 296.61912885 -333.8261795 286.67905807 C-331.85519414 279.35731881 -329.88658871 272.0349456 -327.92041016 264.71191406 C-327.65800254 263.73459824 -327.39559492 262.75728241 -327.12523556 261.75035095 C-326.60049856 259.79596651 -326.07576879 257.84158013 -325.55104637 255.88719177 C-322.1861431 243.35514255 -318.8186949 230.82378063 -315.44555664 218.29394531 C-309.06759897 194.60173091 -302.71115811 170.90389933 -296.37904739 147.19938946 C-294.69824067 140.90828837 -293.01402544 134.61810693 -291.328125 128.32836914 C-290.39826607 124.85828159 -289.46860158 121.388142 -288.5390625 117.91796875 C-288.31282448 117.0735 -288.08658646 116.22903126 -287.85349274 115.35897255 C-284.99719296 104.6933478 -282.16858815 94.02090648 -279.37127686 83.33966064 C-277.99551565 78.08774289 -276.60883462 72.83873039 -275.21879196 67.59057617 C-274.13283573 63.48679457 -273.0614287 59.37960268 -272.00166893 55.26898289 C-271.209976 52.21609683 -270.39627455 49.16907483 -269.5859375 46.12109375 C-269.17654434 44.5028344 -269.17654434 44.5028344 -268.75888062 42.85188293 C-266.06549846 32.88480274 -266.06549846 32.88480274 -261.1875 29.875 C-252.31732243 27.86009871 -242.41607497 31.86280119 -233.8828125 34.1953125 C-232.17632844 34.65197603 -230.4695492 35.10753777 -228.76249695 35.56207275 C-224.21314336 36.77667343 -219.6679993 38.0063645 -215.12353897 39.23912811 C-210.43200133 40.50899991 -205.73669745 41.7647857 -201.04174805 43.02197266 C-192.66843488 45.26625333 -184.29830439 47.52212948 -175.92972279 49.78398323 C-168.31460513 51.84185465 -160.69668276 53.88915877 -153.07766724 55.93254471 C-140.77688593 59.23172775 -128.48021293 62.54588639 -116.1875 65.875 C-115.59763306 64.33779297 -115.59763306 64.33779297 -114.99584961 62.76953125 C-114.46501709 61.40872301 -113.93382962 60.0480532 -113.40234375 58.6875 C-113.14497437 58.01396484 -112.88760498 57.34042969 -112.62243652 56.64648438 C-110.36270489 50.89635267 -107.38468217 46.42426368 -103.1875 41.875 C-102.65511719 41.25238281 -102.12273437 40.62976562 -101.57421875 39.98828125 C-95.03474697 32.79330156 -84.04351173 26.30350073 -74.1875 25.6875 C-73.5275 25.749375 -72.8675 25.81125 -72.1875 25.875 C-71.8575 24.616875 -71.5275 23.35875 -71.1875 22.0625 C-67.17344909 10.24335009 -58.46848499 2.27787301 -47.66015625 -3.46875 C-32.68157369 -10.44712457 -13.75193264 -8.89459863 0 0 Z " fill="#FDD98E" transform="translate(400.1875,7.125)"/>
<path d="M0 0 C10.6353053 8.03632394 18.09452258 18.17108439 20.52734375 31.4453125 C22.22552694 45.91476382 19.02756655 57.89093314 10.8125 69.875 C10.235 70.761875 9.6575 71.64875 9.0625 72.5625 C4.02319185 77.74178893 -2.51478723 82.10826544 -9.1875 84.875 C-10.1775 84.875 -11.1675 84.875 -12.1875 84.875 C-12.8475 87.845 -13.5075 90.815 -14.1875 93.875 C-13.29313232 94.07601318 -12.39876465 94.27702637 -11.47729492 94.48413086 C1.65993798 97.48449043 14.67440948 100.93957673 27.69116211 104.4206543 C30.2492831 105.10359603 32.80789481 105.78401674 35.36791992 106.4597168 C39.1051032 107.44716171 42.83989759 108.44319908 46.57421875 109.44140625 C47.71485275 109.74148087 48.85548676 110.04155548 50.03068542 110.35072327 C62.3678025 113.67477225 62.3678025 113.67477225 66.6875 117.5625 C69.44837126 123.23762427 67.62818232 129.00861371 65.71342891 134.63872343 C60.55020964 150.1545444 60.98769325 165.81384148 61.10485852 181.94519484 C61.12905314 186.21420737 61.11782929 190.48315713 61.11102295 194.75221252 C61.10375527 202.12385997 61.1175717 209.4952144 61.14575005 216.86680794 C61.18603863 227.52989621 61.18800682 238.19274038 61.18009759 248.85588961 C61.16781392 266.16934864 61.17842725 283.48270542 61.20727539 300.79614258 C61.20898934 301.82910516 61.21070328 302.86206775 61.21246917 303.92633223 C61.21947274 308.11286068 61.22659026 312.29938891 61.23383903 316.48591695 C61.25385252 328.04733028 61.27164205 339.60874603 61.28735352 351.17016602 C61.28876988 352.20700754 61.29018624 353.24384905 61.29164552 354.31211001 C61.31459334 371.58734147 61.31790596 388.86252775 61.30795342 406.13777059 C61.30284348 416.78017197 61.31604148 427.42225825 61.35286594 438.06459879 C61.37700089 445.3418309 61.38377322 452.61894199 61.37675791 459.89621038 C61.3733688 464.0955278 61.37836217 468.29441763 61.40515327 472.49365997 C61.42954773 476.33536058 61.43110145 480.17636049 61.4143386 484.01809566 C61.41238183 485.40918863 61.41894903 486.80032448 61.43479805 488.19132853 C61.54521321 498.45217366 61.54521321 498.45217366 59.10304356 503.19452477 C53.74897179 505.9288405 48.49011961 505.55790873 42.56494141 505.50318909 C41.18649688 505.50823446 39.8080589 505.51546322 38.429636 505.52468723 C34.64223996 505.54363844 30.85548847 505.53136015 27.06810856 505.5139643 C22.98350152 505.5006084 18.89898992 505.51602097 14.81439209 505.52778625 C6.81288108 505.54618056 -1.18838598 505.53763865 -9.18988943 505.51969803 C-15.69193846 505.50568135 -22.1939212 505.50177722 -28.69598389 505.5051403 C-30.08325827 505.50585647 -30.08325827 505.50585647 -31.4985584 505.5065871 C-33.37728009 505.50761341 -35.25600177 505.50866877 -37.13472342 505.50975286 C-53.75327593 505.51832355 -70.37171055 505.50163299 -86.99023438 505.47192383 C-103.12179517 505.44308554 -119.25318612 505.4360024 -135.38476562 505.45141602 C-152.94433733 505.46817105 -170.50382837 505.47221951 -188.06340218 505.45470566 C-189.93527348 505.45286124 -191.80714479 505.45102651 -193.67901611 505.44920158 C-195.06056761 505.44783345 -195.06056761 505.44783345 -196.47002923 505.44643768 C-202.96544591 505.44082793 -209.46082325 505.44414353 -215.95623779 505.45074654 C-223.87031533 505.45847218 -231.78422558 505.45175496 -239.69826937 505.4265715 C-243.73738858 505.4140585 -247.7762471 505.40795158 -251.81537628 505.41911316 C-255.51154442 505.42913428 -259.20719206 505.42074208 -262.90329671 505.39753198 C-264.87671918 505.38990795 -266.8501872 505.40194668 -268.8235836 505.41463572 C-269.99390947 505.40358803 -271.16423534 505.39254034 -272.37002563 505.38115788 C-273.38002939 505.37996639 -274.39003315 505.37877491 -275.43064308 505.37754732 C-278.94048891 504.73773769 -280.62956761 503.31015729 -283.1875 500.875 C-284.90044899 497.44910201 -284.36869745 493.51541786 -284.39282227 489.74365234 C-284.40272186 488.79726395 -284.41262146 487.85087555 -284.42282104 486.87580872 C-284.45449022 483.73754404 -284.47921488 480.59926421 -284.50390625 477.4609375 C-284.5244711 475.28902791 -284.54546744 473.11712236 -284.56687927 470.94522095 C-284.62214839 465.22089915 -284.67153631 459.49654095 -284.71972656 453.77215576 C-284.76990628 447.93400827 -284.82561074 442.09591383 -284.88085938 436.2578125 C-284.98850014 424.79692029 -285.08993194 413.33598207 -285.1875 401.875 C-285.97597321 401.67312576 -286.76444641 401.47125153 -287.57681274 401.26325989 C-295.02556175 399.35308443 -302.4700553 397.42742915 -309.91031837 395.48448658 C-313.73511431 394.48626197 -317.5612463 393.49398588 -321.39111328 392.51538086 C-325.09070279 391.56982866 -328.78588192 390.6085534 -332.4785881 389.63648033 C-333.8844518 389.2693163 -335.29178608 388.90773394 -336.7005806 388.55198097 C-350.4558406 385.07123209 -350.4558406 385.07123209 -355.1875 379.875 C-357.83021373 374.58957254 -355.77481307 368.33256541 -354.28930664 362.92724609 C-354.08506388 362.15668884 -353.88082111 361.38613159 -353.67038918 360.59222412 C-352.98775064 358.02533991 -352.2927314 355.46197952 -351.59765625 352.8984375 C-351.10535853 351.05762326 -350.61382601 349.21660422 -350.1230011 347.37539673 C-348.78841235 342.37785585 -347.44301777 337.38328083 -346.0956955 332.38916016 C-344.66964423 327.09576162 -343.25363186 321.79967833 -341.83642578 316.50390625 C-339.17371746 306.56030118 -336.50204853 296.61912885 -333.8261795 286.67905807 C-331.85519414 279.35731881 -329.88658871 272.0349456 -327.92041016 264.71191406 C-327.65800254 263.73459824 -327.39559492 262.75728241 -327.12523556 261.75035095 C-326.60049856 259.79596651 -326.07576879 257.84158013 -325.55104637 255.88719177 C-322.1861431 243.35514255 -318.8186949 230.82378063 -315.44555664 218.29394531 C-309.06759897 194.60173091 -302.71115811 170.90389933 -296.37904739 147.19938946 C-294.69824067 140.90828837 -293.01402544 134.61810693 -291.328125 128.32836914 C-290.39826607 124.85828159 -289.46860158 121.388142 -288.5390625 117.91796875 C-288.31282448 117.0735 -288.08658646 116.22903126 -287.85349274 115.35897255 C-284.99719296 104.6933478 -282.16858815 94.02090648 -279.37127686 83.33966064 C-277.99551565 78.08774289 -276.60883462 72.83873039 -275.21879196 67.59057617 C-274.13283573 63.48679457 -273.0614287 59.37960268 -272.00166893 55.26898289 C-271.209976 52.21609683 -270.39627455 49.16907483 -269.5859375 46.12109375 C-269.17654434 44.5028344 -269.17654434 44.5028344 -268.75888062 42.85188293 C-266.06549846 32.88480274 -266.06549846 32.88480274 -261.1875 29.875 C-252.31732243 27.86009871 -242.41607497 31.86280119 -233.8828125 34.1953125 C-232.17632844 34.65197603 -230.4695492 35.10753777 -228.76249695 35.56207275 C-224.21314336 36.77667343 -219.6679993 38.0063645 -215.12353897 39.23912811 C-210.43200133 40.50899991 -205.73669745 41.7647857 -201.04174805 43.02197266 C-192.66843488 45.26625333 -184.29830439 47.52212948 -175.92972279 49.78398323 C-168.31460513 51.84185465 -160.69668276 53.88915877 -153.07766724 55.93254471 C-140.77688593 59.23172775 -128.48021293 62.54588639 -116.1875 65.875 C-115.59763306 64.33779297 -115.59763306 64.33779297 -114.99584961 62.76953125 C-114.46501709 61.40872301 -113.93382962 60.0480532 -113.40234375 58.6875 C-113.14497437 58.01396484 -112.88760498 57.34042969 -112.62243652 56.64648438 C-110.36270489 50.89635267 -107.38468217 46.42426368 -103.1875 41.875 C-102.65511719 41.25238281 -102.12273437 40.62976562 -101.57421875 39.98828125 C-95.03474697 32.79330156 -84.04351173 26.30350073 -74.1875 25.6875 C-73.5275 25.749375 -72.8675 25.81125 -72.1875 25.875 C-71.8575 24.616875 -71.5275 23.35875 -71.1875 22.0625 C-67.17344909 10.24335009 -58.46848499 2.27787301 -47.66015625 -3.46875 C-32.68157369 -10.44712457 -13.75193264 -8.89459863 0 0 Z M-249.1875 52.875 C-251.21155593 58.67795837 -252.84545329 64.58393205 -254.5 70.5 C-254.81122803 71.61084961 -255.12245605 72.72169922 -255.44311523 73.86621094 C-257.53830576 81.40047504 -259.48925869 88.95850391 -261.34301758 96.55517578 C-263.03671578 103.430858 -264.97910575 110.22207896 -266.95727539 117.02050781 C-268.66820349 122.94265586 -270.22580696 128.88677368 -271.6875 134.875 C-273.58550728 142.65070725 -275.72087897 150.33488611 -277.95703125 158.01953125 C-279.66797367 163.94202424 -281.22572712 169.8864466 -282.6875 175.875 C-284.58550728 183.65070725 -286.72087897 191.33488611 -288.95703125 199.01953125 C-290.66797378 204.94202461 -292.22571404 210.88645002 -293.6875 216.875 C-295.34733498 223.67438829 -297.16489889 230.40609671 -299.125 237.125 C-301.32390734 244.66894365 -303.31624394 252.24330645 -305.1875 259.875 C-307.27414456 268.38512974 -309.55406313 276.81160814 -312.0078125 285.22265625 C-313.94184585 291.89557761 -315.64590476 298.60786014 -317.29321289 305.35644531 C-318.78429962 311.40630258 -320.44672429 317.39256914 -322.1875 323.375 C-324.70122547 332.01578048 -326.94444264 340.70174443 -329.0859375 349.44140625 C-330.19355542 353.94935378 -331.41574748 358.42005346 -332.70703125 362.87890625 C-333.30451027 365.01893165 -333.30451027 365.01893165 -333.1875 367.875 C-331.38732422 368.31199219 -331.38732422 368.31199219 -329.55078125 368.7578125 C-320.54490246 370.9654224 -311.59102727 373.28333153 -302.6875 375.875 C-295.88520516 377.85446717 -289.06985141 379.69482694 -282.1875 381.375 C-275.6189078 382.98030141 -269.11442956 384.72540432 -262.625 386.625 C-253.03335335 389.42688751 -243.37013593 391.9117141 -233.6875 394.375 C-223.1714893 397.05029844 -212.69657289 399.79886711 -202.28125 402.84765625 C-195.79249311 404.73625378 -189.25901422 406.38094604 -182.69458008 407.98364258 C-176.73149525 409.45323183 -170.8328708 411.09264747 -164.9375 412.8125 C-156.39737308 415.30177466 -147.80735695 417.50035873 -139.16723633 419.61376953 C-131.40005642 421.52955199 -123.71238626 423.66398402 -116.04882812 425.95898438 C-111.42180705 427.32512817 -106.98341177 428.32781544 -102.1875 428.875 C-98.97515034 420.00550358 -96.41729357 411.10154825 -94.1875 401.9375 C-92.43824116 394.79506588 -90.67799823 387.66917671 -88.5625 380.625 C-88.19898438 379.40296875 -87.83546875 378.1809375 -87.4609375 376.921875 C-86.07758815 373.61202074 -85.14410443 371.91334162 -82.1875 369.875 C-75.97013792 369.03223737 -70.04134015 370.93569043 -64.0625 372.5 C-63.01513672 372.76707764 -61.96777344 373.03415527 -60.88867188 373.30932617 C-52.92565812 375.36187817 -45.0117394 377.57808357 -37.14013672 379.95751953 C-32.14031066 381.44062986 -27.38125115 382.36872839 -22.1875 382.875 C-21.76791016 381.36099609 -21.76791016 381.36099609 -21.33984375 379.81640625 C-21.15043213 379.13368652 -20.96102051 378.4509668 -20.76586914 377.74755859 C-20.3285335 376.17115103 -19.89153637 374.59464952 -19.45483398 373.01806641 C-18.15342236 368.32692113 -16.83919978 363.63976279 -15.5078125 358.95703125 C-12.24701049 347.45879833 -9.16318277 335.94138492 -6.31665039 324.33349609 C-4.74186941 317.95755358 -2.99408215 311.66640115 -1.08154297 305.38476562 C0.75597092 299.26459983 2.29019756 293.08012113 3.8125 286.875 C5.66741517 279.31410214 7.65033351 271.83334029 9.91796875 264.38671875 C11.75540746 258.26582418 13.29003483 252.08078441 14.8125 245.875 C16.50111081 238.99198235 18.24797343 232.15523478 20.3125 225.375 C22.35073442 218.67642324 24.08227094 211.92486436 25.75 205.125 C27.83344434 196.6309577 30.10242339 188.22051571 32.55786133 179.82714844 C34.81598038 172.03482915 36.76751944 164.17713628 38.68774414 156.2956543 C40.26687164 149.86985663 42.04401443 143.6068238 44.24609375 137.36328125 C44.89477435 134.51356025 44.45602199 132.69293965 43.8125 129.875 C43.17449463 129.71942627 42.53648926 129.56385254 41.87915039 129.40356445 C20.51320576 124.17574735 20.51320576 124.17574735 11.5 121.4375 C3.86827778 119.14239021 -3.80444811 117.00819067 -11.5 114.9375 C-12.68827393 114.6062915 -13.87654785 114.27508301 -15.10083008 113.93383789 C-16.21868896 113.63727295 -17.33654785 113.34070801 -18.48828125 113.03515625 C-19.99128784 112.62728882 -19.99128784 112.62728882 -21.5246582 112.21118164 C-24.54890279 111.82937319 -25.68403342 112.21397536 -28.1875 113.875 C-29.25621414 114.78154607 -30.29761858 115.72106769 -31.3125 116.6875 C-35.47917991 120.36028466 -40.137711 122.63425762 -45.1875 124.875 C-45.96867187 125.23078125 -46.74984375 125.5865625 -47.5546875 125.953125 C-60.81938063 130.59773565 -75.74255375 128.69204286 -88.1875 122.875 C-89.1775 122.215 -90.1675 121.555 -91.1875 120.875 C-95.19975818 121.08054601 -97.05578486 123.49602404 -99.6875 126.3125 C-104.61822443 131.57250226 -104.61822443 131.57250226 -108.1875 132.875 C-111.97575503 132.73970518 -114.41934073 132.36740979 -117.625 130.3125 C-119.4052084 127.53537489 -119.93352041 125.33367155 -119.7734375 122.02734375 C-118.60117658 117.72123863 -115.31335585 114.90398015 -112.1875 111.875 C-111.66671875 111.34261719 -111.1459375 110.81023437 -110.609375 110.26171875 C-109.48594932 109.11569543 -108.33960258 107.99219038 -107.1875 106.875 C-108.1908896 104.35977674 -109.19897831 101.84688896 -110.22265625 99.33984375 C-110.56167969 98.50582031 -110.90070313 97.67179687 -111.25 96.8125 C-111.59160156 95.97589844 -111.93320312 95.13929687 -112.28515625 94.27734375 C-113.0849644 92.14798439 -113.65817769 90.08230608 -114.1875 87.875 C-114.78997559 87.71942627 -115.39245117 87.56385254 -116.01318359 87.40356445 C-131.0647468 83.51141132 -146.06159861 79.46914816 -161.015625 75.21875 C-172.54448082 71.9525725 -184.09104434 68.85805683 -195.72900391 66.00415039 C-201.42875788 64.59637983 -207.07044931 63.08209586 -212.6875 61.375 C-219.74154225 59.23552259 -226.85300289 57.36626594 -234 55.5625 C-235.04542969 55.29566406 -236.09085937 55.02882812 -237.16796875 54.75390625 C-238.64136719 54.38652344 -238.64136719 54.38652344 -240.14453125 54.01171875 C-241.02085205 53.79217529 -241.89717285 53.57263184 -242.80004883 53.34643555 C-245.43594551 52.74585117 -245.43594551 52.74585117 -249.1875 52.875 Z " fill="#010100" transform="translate(400.1875,7.125)"/>
<path d="M0 0 C0.33 0 0.66 0 1 0 C1 85.47 1 170.94 1 259 C-99.65 259 -200.3 259 -304 259 C-304 233.26 -304 207.52 -304 181 C-296.14883716 182.57023257 -288.4430549 184.30256521 -280.6875 186.25 C-279.45708984 186.5579248 -278.22667969 186.86584961 -276.95898438 187.18310547 C-268.7418646 189.25872858 -260.58582676 191.49158587 -252.4519043 193.87011719 C-245.8465073 195.79164058 -239.19977275 197.47483911 -232.51757812 199.10595703 C-225.57611408 200.81678527 -218.71911904 202.77227999 -211.85546875 204.76953125 C-205.93296937 206.48047551 -199.98852351 208.03809053 -194 209.5 C-186.21699094 211.40147399 -178.51850642 213.52488442 -170.82470703 215.75854492 C-163.89485199 217.76441871 -156.93526252 219.63305049 -149.95092773 221.43945312 C-146.93490732 222.22049558 -143.95676401 223.014412 -141 224 C-131.62279177 225.35340112 -125.74395726 222.33755317 -117.9375 217.4375 C-116.22163445 216.40384605 -114.5057455 215.37022861 -112.78848267 214.33889771 C-111.0184414 213.27197772 -109.25475966 212.19510792 -107.49169922 211.11669922 C-102.05626366 207.80498443 -96.52271224 204.66309187 -91 201.5 C-88.86038117 200.26353275 -86.72105983 199.02655058 -84.58203125 197.7890625 C-80.59290325 195.48637068 -76.59559532 193.19936238 -72.5866394 190.93145752 C-70.19352786 189.57680567 -67.80380068 188.21624487 -65.41430664 186.85522461 C-63.73324375 185.90096651 -62.0473456 184.95524225 -60.36132812 184.00976562 C-50.69142148 178.68523887 -50.69142148 178.68523887 -45.39453125 169.4140625 C-44.919555 167.61201526 -44.45513438 165.80716059 -44 164 C-43.46728436 162.13136695 -42.9293773 160.26420735 -42.38671875 158.3984375 C-39.10192933 146.79692261 -36.00131318 135.17101181 -33.12963867 123.46044922 C-31.5546841 117.08385517 -29.80677859 110.79204637 -27.89404297 104.50976562 C-26.05652908 98.38959983 -24.52230244 92.20512113 -23 86 C-21.14508483 78.43910214 -19.16216649 70.95834029 -16.89453125 63.51171875 C-14.74951952 56.36623383 -13.0118448 49.12486572 -11.23486328 41.88085938 C-9.5815811 35.19108139 -7.76300709 28.58059003 -5.76489258 21.98657227 C-3.57833416 14.72397885 -1.77602929 7.37200985 0 0 Z " fill="#FEC043" transform="translate(440,233)"/>
<path d="M0 0 C5.04713133 0.06841667 9.5078705 1.42725607 14.296875 2.91796875 C16.16581746 3.47680627 18.0356336 4.03272907 19.90625 4.5859375 C20.84791016 4.8648584 21.78957031 5.1437793 22.75976562 5.43115234 C26.99475599 6.64570722 31.26558773 7.69335501 35.546875 8.73046875 C42.34655445 10.38899229 49.07803354 12.20788568 55.796875 14.16796875 C63.34081865 16.36687609 70.91518145 18.35921269 78.546875 20.23046875 C87.05700474 22.31711331 95.48348314 24.59703188 103.89453125 27.05078125 C110.56745261 28.9848146 117.27973514 30.68887351 124.02832031 32.33618164 C130.9701094 34.04709962 137.827432 36.00265447 144.69140625 38 C150.61391128 39.7109459 156.55837459 41.26844865 162.546875 42.73046875 C172.13230275 45.07399637 181.62029091 47.72107471 191.08544922 50.50952148 C192.81836495 51.01708944 194.55473476 51.51293825 196.29345703 52.00024414 C197.18661621 52.25539795 198.07977539 52.51055176 199 52.7734375 C199.80856445 53.0005542 200.61712891 53.2276709 201.45019531 53.46166992 C204.7450506 54.66980911 206.01870977 56.10467623 207.546875 59.23046875 C208.13534365 62.04711964 208.22145587 64.4244391 207.546875 67.23046875 C205.37113084 69.92152073 203.63621644 71.68579803 200.546875 73.23046875 C194.38319239 73.41929054 188.5678196 71.74536553 182.734375 69.94921875 C174.80181197 67.5626321 166.82438494 65.43548489 158.79367065 63.40740967 C154.98292551 62.44448774 151.17510608 61.47012317 147.3671875 60.49609375 C146.6103215 60.30264374 145.85345551 60.10919373 145.07365417 59.90988159 C135.24116646 57.39148892 125.44611093 54.7357884 115.65185547 52.07324219 C110.28591759 50.61678539 104.91618154 49.1744473 99.546875 47.73046875 C93.01088151 45.97183713 86.47531468 44.21167694 79.94140625 42.4453125 C77.74744034 41.85269979 75.55343013 41.26025105 73.359375 40.66796875 C72.2856665 40.37809082 71.21195801 40.08821289 70.10571289 39.78955078 C62.909346 37.85213029 55.70033064 35.96840761 48.484375 34.10546875 C41.31937477 32.25489375 34.20835597 30.29424866 27.13354492 28.12451172 C22.89888619 26.84989924 18.64794195 25.76266246 14.33984375 24.76171875 C12.71743774 24.37983398 12.71743774 24.37983398 11.06225586 23.99023438 C8.92993507 23.49410112 6.7940605 23.01293646 4.65454102 22.54882812 C-1.19799136 21.18116648 -4.75717665 20.07557751 -8.453125 15.23046875 C-10.02248094 12.09175687 -9.80513603 9.69191053 -9.453125 6.23046875 C-7.015625 3.35546875 -7.015625 3.35546875 -4.453125 1.23046875 C-3.453125 0.23046875 -3.453125 0.23046875 0 0 Z " fill="#030302" transform="translate(170.453125,168.76953125)"/>
<path d="M0 0 C0.86818359 0.22300781 1.73636719 0.44601563 2.63085938 0.67578125 C9.7958436 2.53775131 16.90809604 4.57597247 24.01611328 6.64306641 C29.93951947 8.3553438 35.88525216 9.91292165 41.875 11.375 C48.67438829 13.03483498 55.40609671 14.85239889 62.125 16.8125 C69.66894365 19.01140734 77.24330645 21.00374394 84.875 22.875 C93.38512974 24.96164456 101.81160814 27.24156313 110.22265625 29.6953125 C116.89557761 31.62934585 123.60786014 33.33340476 130.35644531 34.98071289 C137.29164192 36.69000605 144.14320876 38.64139999 150.99975586 40.64013672 C157.11315952 42.40862249 163.25465091 43.9940413 169.4375 45.5 C189.05315768 50.34299623 189.05315768 50.34299623 193.625 54.1875 C195.29728017 57.78290236 195.49502758 59.94815866 194.875 63.875 C192.875 67.25 192.875 67.25 189.875 69.875 C183.95469948 71.14946554 179.58300943 70.64974443 173.8125 68.8125 C172.22983775 68.34019331 170.64646638 67.87025817 169.0625 67.40234375 C168.22589844 67.15210449 167.38929688 66.90186523 166.52734375 66.64404297 C161.81782627 65.27852566 157.0629315 64.08873721 152.3125 62.875 C145.64887006 61.15748515 139.02324663 59.37043697 132.4375 57.375 C124.60547002 55.0042647 116.6843422 53.05496782 108.73852539 51.10546875 C102.22772048 49.49646191 95.80121056 47.72286373 89.38671875 45.76953125 C82.33558508 43.65284294 75.19424649 41.9124515 68.03710938 40.19335938 C62.2060954 38.77457256 56.45128055 37.18291917 50.703125 35.46484375 C42.79374529 33.10376636 34.8343205 31.00868288 26.83065796 28.99371338 C16.04526791 26.2738999 5.2680569 23.5208459 -5.4375 20.5 C-6.2531543 20.2738501 -7.06880859 20.0477002 -7.90917969 19.81469727 C-18.94348963 16.64726556 -18.94348963 16.64726556 -22.125 11.875 C-22.72682519 8.78485913 -22.73643646 5.96464797 -22.125 2.875 C-15.84760325 -4.62725465 -8.36201174 -2.21133169 0 0 Z " fill="#030302" transform="translate(173.125,210.125)"/>
<path d="M0 0 C6.13029775 3.82396741 9.93846216 9.07977167 12 16 C13.0316607 23.86746125 13.144315 31.30567056 8.61328125 38.0703125 C2.83070378 44.98700323 -3.00201832 49.31473637 -12.04296875 50.34765625 C-20.69037267 50.74302407 -27.1588122 49.11971489 -33.80859375 43.4609375 C-39.2981569 37.68389099 -42.14898484 30.41266838 -42.5625 22.5 C-42.23691401 14.81617065 -38.8708813 8.73528954 -33.75 3.125 C-23.82060008 -5.9270176 -11.57527053 -6.33177191 0 0 Z " fill="#FC5C7B" transform="translate(388,24)"/>
<path d="M0 0 C0.21914063 0.82242188 0.43828125 1.64484375 0.6640625 2.4921875 C4.50196089 16.00283792 10.30428183 26.04596786 22.55078125 33.56640625 C27.82375007 36.31359841 33.30743905 38.30873189 39 40 C36.84047958 48.6380817 31.63912787 54.04201489 24.34375 58.7734375 C16.30659691 62.97954762 6.9554259 63.41602196 -1.75 60.9375 C-12.33599883 56.74194817 -17.62769828 49.05117632 -22.375 39.125 C-24.15116115 30.24419426 -23.67784218 21.87583079 -19 14 C-14.55189499 7.95267452 -8.29118633 0 0 0 Z " fill="#FB5B7B" transform="translate(327,54)"/>
<path d="M0 0 C1.04502686 0.26852783 2.09005371 0.53705566 3.16674805 0.8137207 C11.91050507 3.08272466 20.60207396 5.52670281 29.26953125 8.0703125 C32.92763296 9.13917469 36.60434619 10.0562565 40.3125 10.9375 C44.64911047 12.13713469 47.29182359 13.46360558 49.8125 17.375 C50.43986851 20.1867516 50.4428893 22.56380447 49.8125 25.375 C48.01886089 28.1850346 46.79369065 29.88440468 43.8125 31.375 C36.374809 31.85292392 30.18299833 30.42713166 23.0625 28.375 C20.77229613 27.72989792 18.4819247 27.08539046 16.19140625 26.44140625 C14.99660645 26.10254395 13.80180664 25.76368164 12.57080078 25.41455078 C9.33756175 24.52023275 6.09981414 23.66956259 2.84780884 22.8477478 C0.20383746 22.17896935 -2.43569176 21.49352358 -5.07507324 20.80688477 C-6.96482382 20.3215344 -8.85984364 19.8568504 -10.75488281 19.39257812 C-20.39388016 16.84824707 -20.39388016 16.84824707 -23.4765625 13.3515625 C-25.61114794 9.63796866 -25.87792008 7.59423382 -25.1875 3.375 C-18.99542341 -6.11951745 -9.41378111 -2.48468962 0 0 Z " fill="#030302" transform="translate(165.1875,249.625)"/>
<path d="M0 0 C9.7791754 2.36005774 19.41961588 4.91590374 29 8 C25.35701897 11.06131074 21.62362935 13.49991529 17.4921875 15.85546875 C16.884888 16.20257401 16.2775885 16.54967926 15.65188599 16.90730286 C14.3773367 17.63452326 13.10159018 18.35964901 11.82470703 19.08276367 C9.87092837 20.18980705 7.92156616 21.30433389 5.97265625 22.41992188 C-3.5759573 27.85865243 -3.5759573 27.85865243 -7 29 C-6.28944129 23.09751801 -4.96549923 17.44481841 -3.5 11.6875 C-3.16162109 10.32915039 -3.16162109 10.32915039 -2.81640625 8.94335938 C-1.13375235 2.2675047 -1.13375235 2.2675047 0 0 Z " fill="#F8C766" transform="translate(329,398)"/>
<path d="M0 0 C4.99503071 0.4913145 6.31841769 1.88091769 9.8125 5.375 C11.26397903 8.27795805 11.18489025 10.14761779 10.8125 13.375 C8.74857742 16.90364183 7.53190527 18.78735516 3.65234375 20.11328125 C-0.46314269 20.79347016 -2.51999757 20.76437642 -6.1875 18.625 C-8.74879067 15.74354799 -9.13873279 13.81390488 -9.5625 10 C-9.09233407 5.45506265 -7.63187428 4.23131038 -4.1875 1.375 C-3.1875 0.375 -3.1875 0.375 0 0 Z " fill="#080704" transform="translate(248.1875,272.625)"/>
<path d="M0 0 C0.33 0 0.66 0 1 0 C1 85.47 1 170.94 1 259 C0.67 259 0.34 259 0 259 C-0.00423194 257.72556156 -0.00846388 256.45112312 -0.01282406 255.13806534 C-0.11345403 224.89970883 -0.21915458 194.66137479 -0.33111694 164.42305829 C-0.34488686 160.70293743 -0.35861391 156.98281642 -0.37231445 153.26269531 C-0.37504276 152.52207209 -0.37777106 151.78144887 -0.38058204 151.01838252 C-0.4246822 139.01922028 -0.46530719 127.02004866 -0.50465261 115.02087 C-0.54508827 102.71274123 -0.58924751 90.40462991 -0.63687855 78.09652686 C-0.66616226 70.49902389 -0.69252586 62.90152222 -0.71517897 55.30399653 C-0.73284695 49.48264279 -0.75569032 43.66131667 -0.78049088 37.83998871 C-0.78986194 35.44863998 -0.79753702 33.05728393 -0.80341911 30.66592407 C-0.81167928 27.40926503 -0.82595586 24.15268689 -0.84178162 20.89605713 C-0.84275972 19.94275332 -0.84373783 18.98944951 -0.84474558 18.0072577 C-0.85022002 17.1354114 -0.85569446 16.26356511 -0.8613348 15.36529922 C-0.86399284 14.61345297 -0.86665089 13.86160672 -0.86938947 13.08697724 C-0.92859423 10.98378863 -0.92859423 10.98378863 -1.56726032 8.9615438 C-2.27585863 5.74957434 -0.9990335 3.05586719 0 0 Z " fill="#E1AB3C" transform="translate(440,233)"/>
</svg>
